<svg width="443" height="414" viewBox="0 0 443 414" fill="none" xmlns="http://www.w3.org/2000/svg">
<g clip-path="url(#clip0_1_236)">
<path d="M19.8334 410.094C19.3692 410.094 18.9241 410.278 18.5959 410.607C18.2678 410.935 18.0834 411.38 18.0834 411.844C18.0834 412.308 18.2678 412.753 18.5959 413.081C18.9241 413.41 19.3692 413.594 19.8334 413.594H426.783C427.247 413.594 427.692 413.41 428.02 413.081C428.348 412.753 428.533 412.308 428.533 411.844C428.533 411.38 428.348 410.935 428.02 410.607C427.692 410.278 427.247 410.094 426.783 410.094H19.8334Z" fill="black"/>
<path d="M391.255 350.895C386.388 350.895 382.406 354.879 382.406 359.746C382.406 364.613 386.388 368.596 391.255 368.596C396.122 368.596 400.107 364.613 400.107 359.746C400.107 354.879 396.122 350.895 391.255 350.895ZM391.255 354.395C394.232 354.395 396.609 356.77 396.609 359.746C396.609 362.723 394.232 365.098 391.255 365.098C388.279 365.098 385.904 362.723 385.904 359.746C385.904 356.77 388.279 354.395 391.255 354.395Z" fill="black"/>
<path d="M390.04 282.586C383.721 282.339 376.68 282.793 368.843 284.155C368.617 284.194 368.4 284.278 368.206 284.401C368.012 284.524 367.844 284.684 367.712 284.872C367.579 285.06 367.485 285.273 367.435 285.497C367.385 285.721 367.38 285.953 367.419 286.18C367.499 286.637 367.757 287.044 368.136 287.311C368.516 287.578 368.986 287.683 369.443 287.604C399.926 282.308 417.077 290.966 426.87 300.793C430.741 304.677 433.195 308.593 435.05 312.098C411.869 288.803 376.789 287.04 349.191 308.742C315.448 335.28 328.126 380.692 328.126 380.692C328.188 380.913 328.293 381.12 328.435 381.301C328.577 381.482 328.753 381.633 328.953 381.746C329.153 381.858 329.374 381.931 329.602 381.958C329.83 381.986 330.061 381.968 330.283 381.906C330.73 381.782 331.109 381.485 331.337 381.081C331.565 380.677 331.624 380.199 331.499 379.752C331.499 379.752 319.478 336.563 351.355 311.492C380.596 288.497 417.753 292.853 439.29 322.326C439.527 322.649 439.867 322.882 440.253 322.984C440.64 323.087 441.051 323.054 441.416 322.891C441.782 322.728 442.08 322.445 442.262 322.088C442.444 321.732 442.498 321.323 442.415 320.932C442.415 320.932 439.878 308.887 429.349 298.322C421.452 290.399 408.998 283.329 390.04 282.586Z" fill="black"/>
<path d="M362.337 300.389C362.131 300.49 361.946 300.63 361.794 300.802C361.641 300.974 361.524 301.174 361.449 301.392C361.374 301.609 361.343 301.839 361.357 302.068C361.371 302.298 361.43 302.522 361.531 302.729L389.679 360.512C389.78 360.719 389.92 360.903 390.092 361.056C390.264 361.208 390.465 361.325 390.682 361.4C390.899 361.475 391.129 361.506 391.359 361.492C391.588 361.478 391.812 361.419 392.019 361.319C392.226 361.218 392.41 361.078 392.563 360.906C392.715 360.733 392.832 360.533 392.907 360.316C392.982 360.098 393.013 359.869 392.999 359.639C392.985 359.41 392.926 359.185 392.826 358.979L364.677 301.196C364.577 300.989 364.436 300.804 364.264 300.652C364.092 300.499 363.892 300.383 363.674 300.308C363.457 300.233 363.227 300.201 362.998 300.215C362.768 300.229 362.544 300.288 362.337 300.389Z" fill="black"/>
<path d="M325.728 160.084C323.059 160.084 321.079 162.175 319.818 164.781C318.556 167.388 317.849 170.775 317.849 174.502C317.849 178.23 318.556 181.616 319.818 184.223C321.079 186.83 323.059 188.922 325.728 188.922C328.397 188.922 330.375 186.83 331.636 184.223C332.897 181.616 333.607 178.23 333.607 174.502C333.607 170.775 332.897 167.388 331.636 164.781C330.375 162.175 328.397 160.084 325.728 160.084ZM325.728 163.58C326.445 163.58 327.532 164.326 328.49 166.305C329.447 168.284 330.111 171.232 330.111 174.502C330.111 177.773 329.447 180.722 328.49 182.701C327.532 184.681 326.445 185.426 325.728 185.426C325.011 185.426 323.922 184.681 322.964 182.701C322.006 180.722 321.343 177.773 321.343 174.502C321.343 171.232 322.006 168.284 322.964 166.305C323.922 164.326 325.011 163.58 325.728 163.58Z" fill="black"/>
<path d="M324.249 160.047C321.154 160.105 314.302 160.902 308.997 166.367V166.369C306.546 168.901 305.065 172.431 304.986 176.028C304.907 179.624 306.362 183.371 309.783 185.762C316.177 190.234 322.792 189.325 325.954 188.908C326.182 188.878 326.402 188.804 326.601 188.689C326.8 188.574 326.975 188.421 327.114 188.238C327.254 188.056 327.357 187.847 327.416 187.625C327.476 187.403 327.491 187.172 327.46 186.944C327.43 186.716 327.356 186.496 327.241 186.297C327.126 186.098 326.972 185.923 326.79 185.784C326.607 185.644 326.399 185.541 326.177 185.482C325.955 185.423 325.723 185.408 325.495 185.438C322.298 185.859 317.094 186.603 311.788 182.893C309.359 181.194 308.427 178.761 308.486 176.104C308.544 173.447 309.723 170.652 311.511 168.805C317.339 162.8 325.552 163.573 325.552 163.573C326.014 163.618 326.475 163.479 326.834 163.185C327.193 162.891 327.42 162.466 327.466 162.004C327.512 161.542 327.373 161.081 327.078 160.722C326.784 160.363 326.36 160.136 325.898 160.09C325.898 160.09 325.283 160.028 324.251 160.047L324.249 160.047Z" fill="black"/>
<path d="M325.917 185.444C325.711 185.545 325.527 185.687 325.376 185.86C325.224 186.033 325.108 186.234 325.035 186.452C324.961 186.67 324.931 186.9 324.947 187.13C324.962 187.359 325.022 187.583 325.124 187.789L373.513 285.776C373.615 285.982 373.756 286.166 373.929 286.318C374.102 286.47 374.303 286.586 374.521 286.659C374.739 286.733 374.969 286.763 375.199 286.748C375.428 286.733 375.653 286.673 375.859 286.571C376.065 286.469 376.249 286.327 376.401 286.154C376.552 285.981 376.668 285.78 376.741 285.562C376.815 285.344 376.845 285.114 376.83 284.885C376.814 284.655 376.754 284.431 376.652 284.225L328.261 186.239C328.056 185.822 327.693 185.505 327.254 185.356C326.814 185.207 326.334 185.238 325.917 185.444Z" fill="black"/>
<path d="M331.359 169.924C330.903 170.012 330.501 170.278 330.242 170.662C330.113 170.853 330.023 171.067 329.977 171.292C329.932 171.517 329.931 171.749 329.975 171.975C330.018 172.201 330.106 172.416 330.233 172.607C330.36 172.799 330.524 172.964 330.714 173.092C334.41 175.587 335.227 178.642 334.54 181.772C333.854 184.901 331.372 188.053 328.023 189.774C327.61 189.986 327.299 190.353 327.157 190.795C327.016 191.237 327.055 191.717 327.267 192.129C327.479 192.542 327.846 192.854 328.288 192.996C328.729 193.138 329.21 193.099 329.622 192.887C333.863 190.708 337.012 186.845 337.96 182.522C338.909 178.198 337.365 173.36 332.671 170.192C332.481 170.063 332.267 169.973 332.042 169.927C331.816 169.881 331.584 169.88 331.359 169.924Z" fill="black"/>
<path d="M337.513 170.178C337.321 170.304 337.156 170.467 337.026 170.657C336.897 170.847 336.807 171.061 336.76 171.286C336.713 171.511 336.712 171.743 336.755 171.969C336.798 172.195 336.885 172.41 337.011 172.602C339.41 176.255 339.751 179.787 338.939 182.184C338.126 184.58 336.414 185.938 333.648 185.787C333.184 185.762 332.73 185.922 332.385 186.232C332.039 186.542 331.831 186.976 331.806 187.44C331.793 187.669 331.826 187.899 331.902 188.116C331.978 188.333 332.097 188.533 332.25 188.704C332.404 188.875 332.589 189.015 332.797 189.114C333.004 189.213 333.229 189.271 333.458 189.283C337.632 189.511 341.021 186.942 342.253 183.307C343.486 179.672 342.816 175.069 339.935 170.682C339.68 170.294 339.282 170.023 338.828 169.929C338.374 169.834 337.901 169.924 337.513 170.178Z" fill="black"/>
<path d="M336.22 164.74C332.879 164.521 330.163 165.377 330.163 165.377C329.72 165.515 329.35 165.823 329.134 166.233C328.918 166.644 328.874 167.123 329.011 167.567C329.079 167.786 329.19 167.99 329.337 168.167C329.484 168.344 329.665 168.49 329.868 168.597C330.072 168.704 330.294 168.77 330.523 168.791C330.752 168.812 330.983 168.787 331.203 168.719C331.203 168.719 333.362 168.062 335.992 168.235C338.621 168.407 341.436 169.277 343.296 172.514C346.251 177.653 343.267 183.463 338.048 184.352C337.591 184.43 337.183 184.687 336.915 185.066C336.647 185.444 336.54 185.914 336.619 186.371C336.696 186.829 336.953 187.236 337.331 187.505C337.709 187.773 338.179 187.88 338.636 187.803C346.178 186.518 350.395 177.842 346.329 170.77C343.81 166.387 339.561 164.96 336.22 164.74Z" fill="black"/>
<path d="M282.419 184.941C279.029 182.078 273.847 182.887 270.864 186.418C267.882 189.95 267.952 195.194 271.342 198.058C274.733 200.921 279.915 200.112 282.897 196.581C285.88 193.049 285.81 187.805 282.419 184.941ZM280.162 187.614C281.941 189.116 282.112 192.086 280.223 194.322C278.334 196.559 275.378 196.887 273.599 195.385C271.821 193.883 271.648 190.912 273.537 188.675C275.426 186.439 278.384 186.112 280.162 187.614Z" fill="black"/>
<path d="M184.884 119.801C184.507 120.071 184.252 120.48 184.176 120.938C184.101 121.396 184.21 121.865 184.48 122.242C184.48 122.242 191.715 132.443 194.298 143.684C194.352 143.918 194.453 144.139 194.595 144.332C194.595 144.332 197.188 147.793 203.38 152.194C209.572 156.594 219.463 162.067 234.341 166.518C267.277 176.367 301.761 173.385 301.761 173.385C301.99 173.366 302.213 173.301 302.417 173.196C302.622 173.09 302.803 172.945 302.951 172.769C303.099 172.594 303.211 172.39 303.281 172.171C303.351 171.952 303.376 171.721 303.357 171.492C303.317 171.03 303.095 170.603 302.74 170.304C302.386 170.005 301.926 169.859 301.464 169.899C301.464 169.899 267.45 172.765 235.345 163.164C220.813 158.817 211.283 153.515 205.408 149.34C199.759 145.326 197.708 142.616 197.548 142.403C194.659 130.456 187.326 120.205 187.326 120.205C187.055 119.828 186.646 119.573 186.189 119.498C185.731 119.422 185.262 119.531 184.884 119.801Z" fill="black"/>
<path d="M212.488 61.0823C212.267 61.0187 212.035 60.9993 211.807 61.0252C211.578 61.0511 211.357 61.1217 211.156 61.2331C210.955 61.3444 210.778 61.4943 210.635 61.6742C210.491 61.8541 210.385 62.0605 210.322 62.2815C209.9 63.7481 209.332 64.6896 208.802 65.2131C208.272 65.7367 207.818 65.9065 207.208 65.9104C205.989 65.9184 203.888 64.8173 201.761 62.2444C201.466 61.8869 201.04 61.6613 200.578 61.6174C200.116 61.5734 199.656 61.7147 199.298 62.01C199.121 62.1564 198.974 62.3363 198.866 62.5395C198.759 62.7426 198.692 62.965 198.67 63.1939C198.649 63.4228 198.672 63.6538 198.74 63.8736C198.807 64.0934 198.917 64.2977 199.064 64.4749C201.557 67.492 204.291 69.4295 207.232 69.4104C208.702 69.4004 210.16 68.7903 211.261 67.7034C212.362 66.6164 213.147 65.1177 213.685 63.2483C213.749 63.0275 213.768 62.7963 213.742 62.5679C213.717 62.3395 213.646 62.1185 213.535 61.9173C213.424 61.7162 213.274 61.5389 213.094 61.3956C212.915 61.2524 212.709 61.1459 212.488 61.0823Z" fill="black"/>
<path d="M205.345 81.6467C205.121 81.594 204.89 81.5858 204.663 81.6226C204.436 81.6595 204.218 81.7407 204.023 81.8616C203.628 82.1056 203.347 82.4964 203.24 82.948C203.133 83.3996 203.211 83.8751 203.454 84.2698C205.019 86.802 207.819 88.2705 211.16 88.1448C211.623 88.127 212.061 87.9259 212.376 87.5856C212.691 87.2454 212.859 86.7939 212.841 86.3303C212.823 85.8668 212.622 85.4293 212.282 85.114C211.942 84.7986 211.49 84.6313 211.027 84.6487C208.627 84.739 207.426 84.0398 206.431 82.4299C206.187 82.0353 205.797 81.7536 205.345 81.6467Z" fill="black"/>
<path d="M224.872 74.7522C224.43 74.6147 223.95 74.6586 223.54 74.8743C223.129 75.09 222.821 75.4599 222.683 75.9026C222.683 75.9026 220.323 83.308 215.367 88.7092C212.888 91.4099 209.837 93.5533 206.154 94.1995C202.471 94.8457 198.02 94.0672 192.476 90.4182C192.167 90.215 191.803 90.1146 191.433 90.1314C191.064 90.1482 190.71 90.2814 190.421 90.5119C190.421 90.5119 187.527 92.8405 185.279 97.2639C183.031 101.687 181.35 108.346 183.411 116.959C183.465 117.183 183.562 117.394 183.697 117.58C183.832 117.766 184.002 117.923 184.198 118.044C184.394 118.164 184.612 118.244 184.838 118.28C185.065 118.317 185.297 118.308 185.521 118.254C185.744 118.201 185.955 118.104 186.141 117.969C186.327 117.834 186.485 117.664 186.605 117.468C186.725 117.272 186.806 117.054 186.842 116.827C186.878 116.6 186.869 116.368 186.816 116.145C184.947 108.335 186.465 102.657 188.4 98.8498C189.774 96.1453 191.029 94.7949 191.808 94.0432C197.381 97.3899 202.433 98.4057 206.759 97.6467C211.414 96.8299 215.121 94.1517 217.945 91.0744C223.593 84.9199 226.025 76.9436 226.025 76.9436C226.093 76.724 226.117 76.4932 226.097 76.2642C226.076 76.0352 226.01 75.8126 225.903 75.6091C225.796 75.4056 225.65 75.2251 225.473 75.0781C225.296 74.9311 225.092 74.8204 224.872 74.7522Z" fill="black"/>
<path d="M199.201 0.691659C197.622 0.651339 196.013 0.710899 194.386 0.869393C181.527 2.12241 167.516 9.62517 159.203 23.7151C148.861 27.8629 141.004 41.3082 142.591 58.3655C143.482 67.9659 147.892 75.6635 153.437 80.6448C158.982 85.6261 165.706 88.02 171.423 86.5725C176.663 85.2446 179.074 82.9484 179.753 80.6155C180.433 78.2826 179.277 76.3499 179.277 76.3499C179.098 76.0494 178.832 75.8096 178.516 75.6613C178.199 75.513 177.845 75.463 177.499 75.5178C174.572 75.9822 172.494 75.2439 170.884 73.8928C169.274 72.5418 168.167 70.4741 167.697 68.2952C167.226 66.1163 167.42 63.863 168.142 62.2874C168.864 60.7117 169.894 59.8079 171.687 59.6702C173.736 59.5126 175.104 60.0055 176.206 60.8108C177.309 61.6161 178.144 62.8058 178.744 64.096C179.942 66.6763 180.115 69.4436 180.115 69.4436C180.131 69.7536 180.229 70.0538 180.4 70.3132C180.57 70.5727 180.806 70.7821 181.085 70.9201C181.363 71.058 181.672 71.1195 181.982 71.0983C182.292 71.077 182.59 70.9737 182.847 70.7991C187.237 67.8169 189.061 62.5704 189.929 58.2092C190.362 56.0332 190.547 54.0257 190.624 52.5588C196.816 54.522 203.036 53.3593 208.439 52.5159C211.496 52.0386 214.31 51.7195 216.722 52.0549C218.923 52.361 220.77 53.2521 222.515 55.0335C222.194 56.7417 222.058 58.3625 222.14 59.8811C222.115 59.9811 222.1 60.083 222.093 60.1858C222.124 60.2056 222.155 60.2245 222.187 60.2424C222.961 70.7564 232.035 76.5998 232.035 76.5998C232.23 76.7204 232.448 76.8013 232.675 76.8378C232.902 76.8743 233.134 76.8657 233.357 76.8126C233.581 76.7594 233.792 76.6627 233.978 76.528C234.164 76.3933 234.322 76.2233 234.443 76.0275C234.687 75.6326 234.763 75.157 234.656 74.7053C234.55 74.2537 234.268 73.8631 233.873 73.6194C233.873 73.6194 226.795 69.2337 225.751 60.9553C236.609 57.5881 245.202 47.456 246.695 37.2424C247.477 31.8914 246.17 26.4157 242.019 22.3264C238.043 18.4091 231.574 15.8852 222.357 15.3088C220.571 10.1263 216.937 6.18116 212.214 3.7756C208.4 1.83234 203.937 0.81261 199.201 0.691659ZM199.107 4.19361C203.394 4.30666 207.357 5.23024 210.624 6.89478C214.981 9.11417 218.117 12.5732 219.447 17.4006C219.545 17.7581 219.754 18.0752 220.044 18.3061C220.334 18.5371 220.689 18.67 221.06 18.6858C230.388 19.0791 236.242 21.5482 239.564 24.8206C242.885 28.093 243.889 32.2387 243.232 36.7366C242.022 45.0081 234.673 53.9741 225.739 57.2678C225.822 56.4272 225.83 55.6223 226.052 54.719C226.119 54.4467 226.119 54.1622 226.053 53.8896C225.988 53.617 225.857 53.3642 225.673 53.1526C223.248 50.3661 220.258 49.0128 217.204 48.5881C214.15 48.1635 211.03 48.5679 207.898 49.0569C201.633 50.0348 195.397 51.3301 189.669 48.6311C189.398 48.5032 189.098 48.447 188.799 48.4681C188.5 48.4891 188.212 48.5867 187.961 48.7514C187.71 48.9161 187.506 49.1424 187.368 49.4086C187.23 49.6748 187.163 49.972 187.173 50.2717C187.173 50.2717 187.279 53.5961 186.497 57.5256C185.91 60.4785 184.799 63.6515 182.956 65.9495C182.704 64.9004 182.479 63.8317 181.917 62.6213C181.147 60.9621 180.006 59.2501 178.271 57.9827C176.535 56.7152 174.2 55.9661 171.419 56.1799C168.377 56.4137 166.083 58.3778 164.96 60.8284C163.837 63.279 163.665 66.2079 164.275 69.0335C164.884 71.8591 166.304 74.6173 168.634 76.5725C170.603 78.2251 173.274 79.1637 176.345 79.0706C176.375 79.3095 176.486 79.3117 176.392 79.637C176.142 80.496 175.165 82.0139 170.564 83.1799C166.431 84.2264 160.675 82.4415 155.777 78.0413C150.879 73.6411 146.884 66.7548 146.075 58.0413C144.574 41.9055 152.364 29.8303 160.997 26.7112C161.388 26.5703 161.715 26.2956 161.921 25.9358C169.597 12.5605 182.823 5.51164 194.726 4.35181C196.214 4.20684 197.677 4.15593 199.107 4.19361Z" fill="black"/>
<path fill-rule="evenodd" clip-rule="evenodd" d="M223.793 59.7717C223.723 58.0797 223.873 56.2556 224.353 54.3017C215.723 44.3867 201.633 56.2037 188.923 50.2147C188.923 50.2147 189.383 64.2416 181.863 69.3506C181.863 69.3506 181.213 57.1817 171.553 57.9247C161.883 58.6677 164.303 79.3827 177.773 77.2457C177.773 77.2457 180.833 82.3826 170.993 84.8766C161.143 87.3707 146.033 76.5177 144.333 58.2037C142.773 41.4367 150.763 28.5477 160.403 25.0647C176.353 -2.72735 215.283 -4.31035 221.133 16.9366C259.553 18.5566 245.373 54.5127 223.793 59.7717Z" fill="black"/>
<path d="M162.538 107.912C157.092 108.396 151.407 111.052 146.431 115.209C134.883 124.866 110.94 150.108 98.8431 195.375C98.3 197.384 98.8932 199.545 100.4 200.992C100.41 201.002 100.42 201.012 100.431 201.022C104.993 205.198 118.313 214.956 141.152 213.391C145.448 213.097 150.462 212.527 155.88 209.285C161.298 206.044 167.057 200.217 173.308 189.662C173.544 189.263 173.612 188.787 173.497 188.337C173.382 187.888 173.093 187.502 172.694 187.266C172.295 187.03 171.819 186.962 171.369 187.077C170.92 187.192 170.535 187.48 170.298 187.879C164.239 198.109 158.853 203.429 154.083 206.283C149.313 209.138 145.097 209.614 140.913 209.901C119.182 211.39 106.915 202.203 102.819 198.459C102.234 197.891 102.009 197.071 102.222 196.285C102.222 196.283 102.222 196.281 102.222 196.279C114.105 151.812 137.601 127.153 148.673 117.895C153.198 114.115 158.327 111.799 162.845 111.399C167.363 110.998 171.177 112.341 173.864 116.051C175.084 117.737 176.088 120.871 176.693 124.551C177.297 128.231 177.56 132.454 177.632 136.428C177.776 144.376 177.169 151.301 177.169 151.301C177.144 151.591 177.191 151.883 177.307 152.151C177.423 152.418 177.604 152.652 177.833 152.832C209.917 177.96 250.886 181.487 257.06 181.901C255.091 187.999 252.816 192.237 250.962 194.633C249.162 196.96 248.11 197.657 247.812 197.842C224.941 200.423 204.217 195.704 187.597 188.268C170.874 180.786 158.304 170.515 152.054 162.477C146.131 154.867 146.072 149.509 147.187 145.93C148.302 142.351 150.677 140.565 150.677 140.565C150.861 140.426 151.015 140.253 151.132 140.055C151.248 139.857 151.325 139.638 151.357 139.41C151.388 139.183 151.375 138.951 151.318 138.728C151.26 138.506 151.159 138.297 151.021 138.113C150.882 137.93 150.709 137.775 150.511 137.659C150.313 137.542 150.094 137.466 149.866 137.434C149.639 137.402 149.407 137.415 149.185 137.473C148.962 137.53 148.753 137.631 148.57 137.77C148.57 137.77 145.292 140.243 143.845 144.889C142.397 149.535 142.865 156.37 149.292 164.627C156.043 173.309 168.958 183.763 186.167 191.463C203.377 199.163 224.885 204.056 248.636 201.285C248.87 201.258 249.097 201.184 249.302 201.067C249.302 201.067 251.359 199.841 253.732 196.774C256.104 193.706 258.968 188.701 261.177 180.854C261.248 180.6 261.262 180.334 261.216 180.075C261.17 179.815 261.066 179.57 260.912 179.356C260.758 179.142 260.558 178.966 260.327 178.841C260.095 178.715 259.838 178.643 259.575 178.631C259.575 178.631 214.185 176.341 180.72 150.604C180.827 149.281 181.264 143.63 181.132 136.365C181.058 132.284 180.793 127.924 180.146 123.984C179.499 120.045 178.526 116.521 176.7 113.998C173.288 109.289 167.985 107.429 162.538 107.912Z" fill="black"/>
<path d="M280.786 177.731C279.533 177.725 278.194 177.889 276.743 178.158C268.531 179.685 259.704 178.641 259.704 178.641C259.476 178.613 259.245 178.63 259.023 178.692C258.801 178.754 258.594 178.859 258.413 179.001C258.232 179.142 258.081 179.319 257.968 179.519C257.855 179.719 257.783 179.94 257.755 180.168C257.7 180.629 257.829 181.093 258.116 181.458C258.402 181.823 258.822 182.06 259.283 182.115C259.283 182.115 268.454 183.259 277.382 181.6C280.012 181.111 281.795 181.122 283.095 181.608C284.395 182.093 285.469 183.069 286.693 185.206C287.689 186.953 287.809 189.855 286.816 191.928C285.823 194.001 284.137 195.389 280.62 194.866C280.161 194.797 279.694 194.914 279.321 195.19C278.949 195.467 278.701 195.879 278.632 196.338C278.564 196.797 278.681 197.265 278.957 197.637C279.233 198.01 279.646 198.258 280.105 198.327C284.868 199.035 288.442 196.635 289.972 193.442C291.501 190.249 291.407 186.405 289.734 183.471V183.469C288.278 180.926 286.544 179.159 284.322 178.329C283.21 177.913 282.042 177.737 280.788 177.731L280.786 177.731Z" fill="black"/>
<path d="M272.992 184.58C267.804 186.97 265.081 191.907 261.175 194.701C259.582 195.839 258.075 195.589 256.642 195.002C255.209 194.415 254.191 193.504 254.191 193.504C253.848 193.192 253.395 193.029 252.932 193.051C252.468 193.072 252.033 193.277 251.72 193.619C251.565 193.789 251.445 193.988 251.367 194.204C251.289 194.42 251.255 194.65 251.265 194.88C251.276 195.109 251.332 195.334 251.43 195.542C251.527 195.751 251.665 195.937 251.835 196.092C251.835 196.092 253.241 197.391 255.316 198.24C257.39 199.09 260.473 199.504 263.21 197.549C263.21 197.548 263.21 197.548 263.21 197.547C267.944 194.16 270.642 189.516 274.454 187.76C274.663 187.664 274.851 187.527 275.007 187.359C275.163 187.19 275.285 186.992 275.364 186.776C275.444 186.561 275.48 186.332 275.471 186.102C275.462 185.872 275.408 185.646 275.312 185.438C275.118 185.016 274.764 184.69 274.329 184.529C273.894 184.368 273.413 184.387 272.992 184.58Z" fill="black"/>
<path d="M285.099 177.403C284.011 177.421 282.857 177.57 281.646 177.867C281.423 177.922 281.212 178.02 281.027 178.156C280.842 178.292 280.685 178.464 280.566 178.66C280.446 178.857 280.367 179.075 280.332 179.302C280.298 179.529 280.308 179.761 280.363 179.985C280.417 180.208 280.516 180.418 280.652 180.604C280.788 180.789 280.959 180.946 281.155 181.065C281.352 181.184 281.57 181.263 281.798 181.298C282.025 181.333 282.257 181.323 282.48 181.268C286.446 180.293 288.806 181.188 290.412 182.793C292.017 184.399 292.845 186.98 292.802 189.496C292.759 192.013 291.809 194.334 290.521 195.406C289.233 196.479 287.638 196.831 284.706 195.01C284.312 194.765 283.837 194.687 283.385 194.792C282.933 194.898 282.541 195.178 282.296 195.573C282.175 195.768 282.093 195.985 282.056 196.212C282.019 196.438 282.026 196.67 282.078 196.894C282.131 197.118 282.227 197.329 282.36 197.516C282.494 197.703 282.664 197.861 282.859 197.983C286.622 200.32 290.363 200.094 292.761 198.096C295.159 196.098 296.246 192.853 296.302 189.557C296.358 186.261 295.348 182.781 292.886 180.319C291.04 178.472 288.365 177.347 285.099 177.403Z" fill="black"/>
<path d="M290.956 177.547C289.968 177.514 288.919 177.579 287.816 177.756C287.589 177.792 287.371 177.873 287.175 177.994C286.979 178.114 286.809 178.272 286.675 178.458C286.54 178.645 286.443 178.856 286.39 179.079C286.337 179.303 286.328 179.535 286.365 179.762C286.401 179.989 286.482 180.207 286.602 180.402C286.723 180.598 286.88 180.768 287.067 180.903C287.253 181.038 287.464 181.135 287.688 181.188C287.912 181.241 288.143 181.25 288.37 181.213C291.996 180.631 294.251 181.459 295.753 182.819C297.256 184.178 298.051 186.24 298.14 188.362C298.229 190.483 297.568 192.585 296.515 193.828C295.462 195.072 294.249 195.639 292.173 195.033C291.728 194.904 291.249 194.956 290.842 195.179C290.435 195.402 290.133 195.777 290.003 196.223C289.873 196.668 289.926 197.147 290.149 197.554C290.372 197.961 290.747 198.263 291.193 198.393C294.412 199.331 297.408 198.193 299.187 196.092C300.966 193.991 301.76 191.109 301.638 188.215C301.516 185.321 300.434 182.336 298.101 180.225C296.351 178.642 293.923 177.647 290.956 177.547Z" fill="black"/>
<path d="M306.062 174.707C304.679 175.281 301.457 176.186 298.706 176.883C295.955 177.58 293.607 178.11 293.607 178.11C293.154 178.212 292.761 178.49 292.514 178.882C292.266 179.274 292.184 179.749 292.286 180.201C292.389 180.654 292.666 181.048 293.059 181.296C293.451 181.544 293.926 181.626 294.378 181.524C294.378 181.524 296.764 180.986 299.566 180.276C302.367 179.565 305.517 178.722 307.404 177.94C307.832 177.762 308.173 177.421 308.35 176.992C308.527 176.563 308.527 176.081 308.349 175.653C308.171 175.224 307.83 174.884 307.401 174.706C306.972 174.529 306.49 174.529 306.062 174.707Z" fill="black"/>
<path d="M305.148 188.213C301.659 188.221 298.888 189.569 298.888 189.569C298.681 189.668 298.495 189.807 298.341 189.978C298.188 190.149 298.069 190.348 297.993 190.565C297.916 190.782 297.883 191.011 297.895 191.241C297.907 191.47 297.965 191.695 298.064 191.903C298.163 192.11 298.302 192.296 298.473 192.45C298.643 192.604 298.843 192.723 299.06 192.799C299.276 192.876 299.506 192.909 299.736 192.897C299.965 192.885 300.19 192.828 300.398 192.729C300.398 192.729 302.567 191.719 305.156 191.713C307.744 191.707 310.492 192.436 312.499 196.574C312.499 196.575 312.499 196.576 312.499 196.576C317.541 206.952 365.685 300.873 365.685 300.873C365.897 301.286 366.264 301.598 366.706 301.74C367.148 301.882 367.628 301.843 368.04 301.631C368.245 301.526 368.427 301.382 368.576 301.207C368.725 301.032 368.838 300.83 368.908 300.611C368.979 300.392 369.006 300.162 368.987 299.932C368.968 299.703 368.905 299.48 368.8 299.276C368.8 299.276 320.487 205.006 315.648 195.047V195.045C313.105 189.806 308.637 188.205 305.148 188.213Z" fill="black"/>
<path d="M321.085 208.574C321.085 208.574 315.461 209.544 309.421 214.571C303.381 219.597 296.801 228.729 294.275 244.746C289.341 276.087 286.272 299.178 286.343 316.115C286.382 323.973 285.5 331.656 289.115 339.688C292.292 346.746 299.255 353.835 312.402 361.514L282.458 362.114C282.229 362.118 282.002 362.168 281.791 362.26C281.581 362.352 281.39 362.485 281.231 362.651C281.072 362.817 280.947 363.012 280.863 363.226C280.779 363.44 280.739 363.669 280.744 363.899C280.748 364.129 280.798 364.355 280.89 364.566C280.982 364.776 281.115 364.967 281.281 365.126C281.447 365.285 281.642 365.41 281.856 365.494C282.07 365.578 282.299 365.618 282.529 365.614L318.667 364.887C319.055 364.879 319.429 364.742 319.731 364.498C320.033 364.254 320.245 363.916 320.334 363.539C320.423 363.161 320.384 362.764 320.223 362.411C320.062 362.058 319.788 361.769 319.445 361.588C302.716 352.83 295.486 345.316 292.306 338.25C289.126 331.185 289.884 324.206 289.843 316.098C289.774 299.6 292.805 276.589 297.732 245.291C300.146 229.988 306.249 221.762 311.66 217.26C317.07 212.758 321.66 212.028 321.66 212.028C321.886 211.99 322.103 211.908 322.298 211.786C322.494 211.665 322.663 211.506 322.796 211.319C322.93 211.132 323.026 210.92 323.078 210.697C323.129 210.473 323.137 210.241 323.099 210.014C323.061 209.787 322.979 209.57 322.858 209.375C322.736 209.18 322.577 209.011 322.39 208.877C322.203 208.743 321.992 208.648 321.768 208.596C321.544 208.544 321.312 208.537 321.085 208.574Z" fill="black"/>
<path fill-rule="evenodd" clip-rule="evenodd" d="M89.9681 361.51C89.9681 363.982 88.9863 366.352 87.2388 368.099C85.4912 369.847 83.121 370.829 80.6495 370.829C79.4258 370.829 78.2141 370.588 77.0835 370.12C75.9529 369.651 74.9256 368.965 74.0603 368.099C73.195 367.234 72.5086 366.207 72.0403 365.076C71.572 363.946 71.3309 362.734 71.3309 361.51C71.3309 360.287 71.572 359.075 72.0403 357.944C72.5086 356.814 73.195 355.786 74.0603 354.921C74.9256 354.056 75.9529 353.369 77.0835 352.901C78.2141 352.433 79.4258 352.192 80.6495 352.192C83.121 352.192 85.4912 353.173 87.2388 354.921C88.9863 356.669 89.9681 359.039 89.9681 361.51Z" fill="black"/>
<path d="M87.9487 282.346L4.45843 283.043C3.99463 283.047 3.55146 283.235 3.22625 283.566C2.90104 283.897 2.72041 284.343 2.72405 284.807C2.72584 285.037 2.77288 285.264 2.86248 285.476C2.95208 285.687 3.08249 285.879 3.24627 286.04C3.41005 286.202 3.60394 286.329 3.81695 286.415C4.02996 286.502 4.25791 286.545 4.48772 286.543L87.978 285.846C88.4418 285.842 88.8849 285.654 89.2101 285.323C89.5353 284.992 89.716 284.546 89.7123 284.082C89.7105 283.852 89.6635 283.625 89.5739 283.414C89.4843 283.202 89.3539 283.01 89.1901 282.849C89.0263 282.688 88.8325 282.56 88.6194 282.474C88.4064 282.388 88.1785 282.344 87.9487 282.346Z" fill="black"/>
<path d="M38.3647 226.158C35.0668 226.176 31.0444 226.249 27.058 226.356C23.0716 226.462 19.1252 226.602 15.974 226.754C12.8229 226.907 10.7104 227.008 9.49942 227.258C7.92602 227.582 5.80893 227.978 4.09903 229.719C2.38853 231.461 1.34059 234.256 1.04629 238.797C0.758491 243.237 0.623997 252.268 0.612697 260.739C0.602697 264.974 0.6337 269.057 0.6907 272.33C0.7487 275.604 0.817191 277.953 0.966091 279.16C1.01821 279.585 1.22426 279.976 1.54531 280.26C1.86637 280.543 2.28013 280.699 2.70828 280.698L55.2981 280.545L67.638 280.51C68.1017 280.508 68.546 280.323 68.8731 279.994C69.2001 279.665 69.3831 279.22 69.3821 278.756C69.3816 278.526 69.3359 278.299 69.2475 278.087C69.159 277.875 69.0297 277.682 68.8668 277.52C68.704 277.358 68.5108 277.229 68.2982 277.142C68.0857 277.054 67.858 277.009 67.6282 277.01L57.1692 277.039C57.2252 275.489 57.5091 267.784 57.7649 258.016C57.9051 252.664 58.0221 247.173 58.0579 242.727C58.0939 238.28 58.11 235.147 57.8393 233.516C57.8393 233.515 57.8393 233.513 57.8393 233.512C57.3612 230.669 55.292 228.788 52.9759 227.84C50.6597 226.892 48.01 226.584 45.4329 226.303C44.126 226.16 41.6626 226.141 38.3647 226.158ZM38.3847 229.658C41.6462 229.641 44.2764 229.697 45.0545 229.782C47.5874 230.058 49.9964 230.401 51.6502 231.078C53.3023 231.755 54.1137 232.475 54.3865 234.088C54.4855 234.687 54.5939 238.291 54.5584 242.699C54.5234 247.108 54.4072 252.584 54.2674 257.924C54.0103 267.741 53.7201 275.605 53.6678 277.051L4.38076 277.194C4.31076 276.047 4.23276 274.737 4.18936 272.268C4.13236 269.027 4.10731 264.96 4.11331 260.742C4.12431 252.307 4.26679 243.223 4.53909 239.024C4.80469 234.925 5.70818 233.078 6.59768 232.172C7.48718 231.266 8.62066 231.012 10.2071 230.686C10.4911 230.627 13.0294 230.401 16.1426 230.25C19.2558 230.1 23.1862 229.96 27.1524 229.854C31.1185 229.748 35.1231 229.676 38.3847 229.658Z" fill="black"/>
<path d="M56.1908 236.975C38.2661 238.228 20.4854 238.461 2.70643 238.526C2.24231 238.527 1.79779 238.713 1.47071 239.042C1.14363 239.372 0.960733 239.817 0.96229 240.281C0.963058 240.511 1.00913 240.739 1.09791 240.951C1.18669 241.163 1.31637 241.356 1.47962 241.518C1.64288 241.68 1.83649 241.808 2.04933 241.895C2.26217 241.982 2.49013 242.027 2.7201 242.026C20.5211 241.961 38.3796 241.728 56.4349 240.465C56.8977 240.433 57.3286 240.218 57.6329 239.867C57.9373 239.517 58.0902 239.061 58.058 238.598C58.0255 238.135 57.8105 237.704 57.4603 237.4C57.1102 237.096 56.6536 236.943 56.1908 236.975Z" fill="black"/>
<path d="M59.4252 282.711C59.4252 282.711 46.841 287.897 34.6576 298.537C22.4742 309.178 10.5129 325.503 12.1283 347.557C12.159 347.963 12.3307 348.347 12.6138 348.64C12.8968 348.934 13.2735 349.119 13.6787 349.164C14.0839 349.21 14.4923 349.112 14.8333 348.889C15.1742 348.665 15.4264 348.329 15.5463 347.94C15.5463 347.94 19.141 336.212 28.4447 324.432C37.7484 312.651 52.555 300.966 75.3099 300.875C86.9448 300.829 100.891 303.038 112.806 309.828C124.721 316.618 134.673 327.886 138.652 346.459C140.257 353.962 140.588 359.404 141.89 364.137C143.192 368.87 145.659 372.835 151.027 376.494C153.607 378.253 156.054 379.792 160.228 380.885C164.402 381.978 170.275 382.684 180.144 383.115C199.882 383.978 235.663 383.711 305.427 382.713C305.657 382.71 305.884 382.662 306.095 382.571C306.307 382.48 306.498 382.348 306.658 382.183C306.819 382.018 306.945 381.824 307.03 381.61C307.115 381.396 307.157 381.168 307.154 380.938C307.15 380.708 307.102 380.481 307.011 380.27C306.92 380.059 306.788 379.868 306.623 379.708C306.458 379.548 306.264 379.421 306.05 379.337C305.836 379.252 305.608 379.21 305.378 379.213C235.622 380.211 199.818 380.47 180.296 379.617C170.535 379.191 164.86 378.479 161.115 377.498C157.37 376.517 155.529 375.327 152.999 373.602C148.147 370.294 146.418 367.402 145.265 363.209C144.112 359.017 143.729 353.464 142.074 345.727C137.903 326.258 127.186 313.994 114.538 306.787C101.891 299.58 87.3813 297.327 75.2963 297.375C51.3411 297.471 35.4324 309.937 25.6986 322.262C21.1646 328.003 18.0371 333.635 15.8705 338.131C17.6595 322.074 27.0644 309.815 36.9603 301.172C48.6695 290.945 60.7611 285.946 60.7611 285.946C61.19 285.768 61.5309 285.428 61.7089 285C61.8869 284.571 61.8874 284.089 61.7103 283.66C61.5331 283.232 61.1928 282.891 60.7643 282.713C60.3358 282.535 59.8541 282.534 59.4252 282.711Z" fill="black"/>
<path d="M113.988 306.483C113.794 306.359 113.578 306.274 113.352 306.233C113.126 306.193 112.894 306.197 112.669 306.246C112.444 306.296 112.232 306.388 112.043 306.52C111.855 306.651 111.694 306.818 111.57 307.012L80.849 354.975C80.7249 355.168 80.6402 355.384 80.5997 355.611C80.5592 355.837 80.5636 356.069 80.6127 356.293C80.6619 356.518 80.7547 356.731 80.8861 356.919C81.0174 357.108 81.1847 357.269 81.3783 357.393C81.5719 357.517 81.788 357.601 82.0144 357.642C82.2407 357.682 82.4728 357.678 82.6973 357.628C82.9219 357.579 83.1345 357.486 83.3231 357.354C83.5116 357.223 83.6724 357.055 83.7962 356.862L114.517 308.901C114.641 308.707 114.726 308.491 114.766 308.265C114.807 308.039 114.802 307.807 114.753 307.582C114.704 307.357 114.611 307.145 114.48 306.956C114.348 306.768 114.181 306.607 113.988 306.483Z" fill="black"/>
<path d="M83.8432 360.92C83.6133 360.919 83.3856 360.963 83.1728 361.05C82.9599 361.136 82.7663 361.264 82.6029 361.426C82.4395 361.587 82.3095 361.78 82.2204 361.991C82.1312 362.203 82.0847 362.431 82.0834 362.66C82.0821 362.89 82.1262 363.118 82.2129 363.331C82.2997 363.544 82.4274 363.737 82.589 363.901C82.7506 364.064 82.9429 364.194 83.1547 364.283C83.3665 364.372 83.5938 364.419 83.8236 364.42L143.394 364.75C143.624 364.752 143.852 364.708 144.064 364.621C144.277 364.534 144.471 364.406 144.634 364.245C144.798 364.083 144.928 363.891 145.017 363.679C145.106 363.467 145.152 363.24 145.154 363.01C145.155 362.78 145.111 362.552 145.024 362.34C144.937 362.127 144.81 361.933 144.648 361.77C144.487 361.606 144.294 361.476 144.082 361.387C143.871 361.298 143.643 361.252 143.413 361.25L83.8432 360.92Z" fill="black"/>
<path d="M69.0893 169.485C64.9199 169.506 60.6299 170.354 56.3334 171.526C46.4523 174.218 38.2054 184.28 34.6029 189.158C34.6029 189.16 34.6029 189.162 34.6029 189.164C32.9159 191.417 32.8366 194.494 34.3744 196.834C34.3803 196.843 34.3863 196.851 34.3924 196.86C37.0492 200.755 40.9659 203.666 44.865 205.678C48.7642 207.69 52.6056 208.819 55.5019 208.961C58.2754 209.097 63.3345 209.501 68.0818 209.309C70.4555 209.213 72.757 208.976 74.7519 208.43C76.7467 207.884 78.5748 207.044 79.5759 205.295C82.252 200.615 85.1658 195.421 87.0525 190.745C87.9959 188.407 88.6916 186.201 88.9412 184.163C89.1908 182.124 89.0082 180.135 87.824 178.569C83.7647 173.198 78.6513 170.537 73.2186 169.756C71.8604 169.561 70.4833 169.478 69.0936 169.485L69.0893 169.485ZM69.1063 172.99C70.3442 172.981 71.5489 173.053 72.7157 173.221C77.3829 173.891 81.4656 175.967 85.0263 180.678C85.0263 180.679 85.0263 180.679 85.0263 180.68C85.4221 181.204 85.6509 182.192 85.4618 183.737C85.2727 185.281 84.6784 187.261 83.8017 189.434C82.0485 193.779 79.198 198.898 76.5341 203.557C76.2852 203.992 75.3879 204.626 73.8212 205.055C72.2545 205.484 70.159 205.723 67.9364 205.813C63.4912 205.992 58.5653 205.607 55.6688 205.465C53.585 205.363 49.9816 204.383 46.4657 202.569C42.9563 200.758 39.4976 198.125 37.2938 194.903C36.5589 193.776 36.5945 192.335 37.4013 191.26C37.4046 191.256 37.408 191.252 37.4113 191.248C40.8124 186.641 49.1203 177.119 57.2531 174.903C61.3866 173.775 65.3927 173.017 69.1063 172.99Z" fill="black"/>
<path fill-rule="evenodd" clip-rule="evenodd" d="M78.363 203.87C78.263 204.056 78.153 204.241 78.053 204.426C75.553 208.792 61.253 207.491 55.583 207.213C50.603 206.968 40.693 203 35.833 195.874C35.423 195.252 35.163 194.561 35.063 193.855C43.403 193.671 56.2429 193.697 61.8929 195.323C68.5029 197.219 73.773 198.957 78.363 203.87Z" fill="black"/>
<path d="M70.2982 169.514C69.8355 169.547 69.4048 169.763 69.101 170.114C69.101 170.114 57.4548 183.326 59.4154 199.162C59.4437 199.391 59.5165 199.611 59.63 199.811C59.7435 200.011 59.8953 200.187 60.0767 200.328C60.258 200.469 60.4655 200.573 60.6871 200.634C60.9088 200.695 61.1404 200.712 61.3685 200.684C61.5967 200.656 61.817 200.583 62.017 200.469C62.217 200.356 62.3926 200.204 62.5339 200.023C62.6752 199.841 62.7794 199.634 62.8405 199.412C62.9015 199.19 62.9185 198.959 62.89 198.731C61.1707 184.843 71.7455 172.405 71.7455 172.405C72.049 172.054 72.2009 171.597 72.168 171.135C72.135 170.672 71.9198 170.242 71.5697 169.938C71.396 169.787 71.1943 169.672 70.9761 169.599C70.7579 169.527 70.5276 169.498 70.2982 169.514Z" fill="black"/>
<path d="M152.011 111.881C151.786 111.834 151.554 111.832 151.328 111.874C151.102 111.917 150.887 112.003 150.695 112.129C150.695 112.129 133.401 123.433 114.587 136.301C105.181 142.735 95.3947 149.561 87.1868 155.571C78.9789 161.58 72.4047 166.701 69.1673 170.041C69.0073 170.206 68.8812 170.401 68.7965 170.615C68.7117 170.828 68.6699 171.056 68.6733 171.286C68.6767 171.516 68.7254 171.743 68.8165 171.954C68.9076 172.165 69.0394 172.356 69.2043 172.516C69.3693 172.676 69.5643 172.802 69.778 172.886C69.9917 172.971 70.22 173.012 70.4498 173.009C70.6796 173.005 70.9064 172.956 71.1173 172.865C71.3282 172.774 71.519 172.642 71.6789 172.477C74.4915 169.575 81.0961 164.367 89.2531 158.395C97.4102 152.422 107.175 145.611 116.564 139.19C135.34 126.346 152.611 115.059 152.611 115.059C152.999 114.805 153.271 114.407 153.366 113.953C153.461 113.499 153.372 113.025 153.118 112.637C152.993 112.444 152.83 112.278 152.64 112.149C152.45 112.019 152.236 111.928 152.011 111.881Z" fill="black"/>
<path d="M29.765 161.069C28.618 160.904 27.3678 161.398 26.6361 162.332C25.1727 164.2 25.4927 166.996 27.4544 170.248C31.3123 176.644 38.4274 180.775 45.4681 181.44C45.9302 181.483 46.3906 181.341 46.748 181.045C47.1055 180.749 47.3308 180.324 47.3744 179.862C47.4179 179.4 47.2762 178.94 46.9807 178.582C46.6852 178.225 46.2599 177.999 45.7982 177.955C39.9189 177.4 33.6525 173.75 30.4505 168.442C28.9914 166.023 29.2942 164.848 29.3802 164.633C29.4512 164.661 29.5436 164.667 29.7494 164.961C29.7494 164.962 29.7494 164.963 29.7494 164.963C31.7708 167.845 34.9757 169.408 38.5013 170.078C42.0268 170.749 45.9529 170.585 49.8509 169.959C61.7677 168.047 69.5209 172.758 69.5209 172.758C69.7177 172.877 69.936 172.955 70.1633 172.99C70.3906 173.024 70.6224 173.013 70.8454 172.958C71.0685 172.903 71.2784 172.804 71.4634 172.667C71.6483 172.531 71.8046 172.359 71.9232 172.162C72.0418 171.965 72.1203 171.747 72.1544 171.52C72.1885 171.292 72.1775 171.061 72.1221 170.837C72.0666 170.614 71.9677 170.404 71.831 170.219C71.6944 170.035 71.5226 169.879 71.3255 169.76C71.3255 169.76 62.3593 164.406 49.2962 166.502C45.6741 167.084 42.0975 167.2 39.1556 166.641C36.2136 166.081 33.9852 164.905 32.6166 162.953C31.9102 161.944 30.9116 161.233 29.765 161.069Z" fill="black"/>
<path d="M101.699 188.649C92.874 190.58 85.6712 188.811 85.6712 188.811C85.2206 188.7 84.7444 188.773 84.3474 189.013C83.9503 189.253 83.6649 189.641 83.554 190.092C83.4432 190.542 83.5156 191.018 83.7555 191.415C83.9953 191.812 84.3831 192.098 84.8333 192.209C84.8333 192.209 92.7912 194.182 102.447 192.069C102.671 192.02 102.884 191.927 103.073 191.795C103.261 191.664 103.422 191.497 103.546 191.303C103.67 191.11 103.755 190.894 103.796 190.668C103.836 190.441 103.832 190.209 103.783 189.985C103.733 189.76 103.641 189.547 103.509 189.359C103.378 189.17 103.211 189.009 103.017 188.885C102.824 188.761 102.608 188.676 102.381 188.636C102.155 188.595 101.923 188.6 101.699 188.649Z" fill="black"/>
<path d="M156.699 204.512C156.352 204.821 156.143 205.255 156.117 205.718C156.09 206.182 156.249 206.636 156.558 206.983C159.145 209.881 164.107 212.065 170.703 214.379C177.298 216.693 185.492 218.951 194.204 221.143C211.629 225.527 231.141 229.657 243.628 233.25C255.98 236.804 262.669 241.762 266.468 247.791C270.267 253.821 271.242 261.165 271.474 269.68C271.567 273.089 270.307 279.063 268.212 285.963C266.118 292.864 263.223 300.768 260.171 308.461C254.067 323.847 247.273 338.499 245.111 342.533C245.111 342.534 245.111 342.535 245.111 342.535C243.807 344.974 243.633 347.407 244.607 349.325C245.581 351.242 247.383 352.466 249.415 353.432C253.481 355.363 258.882 356.374 263.089 357.668C267.264 358.954 269.113 360.311 269.644 361.073C269.91 361.454 269.932 361.651 269.913 361.918C269.894 362.186 269.771 362.552 269.521 362.981C269.521 362.981 269.521 362.982 269.521 362.983C269.435 363.131 268.754 363.645 267.521 363.953C266.288 364.262 264.655 364.421 263.064 364.467C259.881 364.56 256.892 364.241 256.892 364.241C256.663 364.216 256.432 364.236 256.212 364.3C255.991 364.365 255.785 364.472 255.606 364.616C255.427 364.76 255.278 364.938 255.167 365.14C255.057 365.341 254.987 365.563 254.962 365.791C254.938 366.02 254.958 366.251 255.023 366.472C255.088 366.692 255.195 366.898 255.339 367.077C255.483 367.256 255.662 367.405 255.863 367.515C256.065 367.625 256.286 367.695 256.515 367.719C256.515 367.719 259.686 368.067 263.165 367.965C264.905 367.914 266.728 367.759 268.371 367.348C270.013 366.937 271.626 366.321 272.544 364.744C272.964 364.026 273.334 363.171 273.406 362.166C273.477 361.161 273.188 360.036 272.515 359.071C271.169 357.141 268.632 355.712 264.119 354.323C259.625 352.941 254.286 351.869 250.919 350.27C249.236 349.47 248.15 348.568 247.73 347.741C247.31 346.914 247.237 345.983 248.197 344.188V344.186C250.575 339.748 257.275 325.254 263.425 309.752C266.5 302.001 269.423 294.026 271.562 286.979C273.701 279.932 275.089 273.892 274.972 269.584C274.734 260.863 273.763 252.803 269.429 245.924C265.095 239.045 257.465 233.588 244.597 229.885C231.865 226.221 212.386 222.109 195.058 217.748C186.394 215.568 178.272 213.326 171.861 211.076C165.45 208.827 160.717 206.385 159.169 204.651C158.86 204.305 158.426 204.096 157.963 204.07C157.499 204.044 157.045 204.203 156.699 204.512Z" fill="black"/>
<path d="M59.973 278.783C69.703 257.611 125.433 258.59 125.433 258.59C86.533 234.061 104.093 201.799 104.093 201.799C109.933 206.255 122.033 212.947 141.033 211.646C141.523 211.612 142.023 211.576 142.513 211.532C158.713 226.801 199.953 232.726 229.663 238.168C259.363 243.611 269.473 261.095 265.503 278.671C261.543 296.247 236.653 356.699 232.003 357.86C201.403 365.512 185.053 346.132 185.593 342.504C186.653 335.497 215.503 278.338 215.503 278.338L59.973 278.783Z" fill="black"/>
<path d="M103.728 200.088C103.481 200.141 103.249 200.246 103.047 200.397C102.844 200.547 102.677 200.74 102.556 200.961C102.556 200.961 97.9336 209.444 98.4271 221.071C98.8804 231.75 103.9 245.137 120.07 256.948C114.961 257.028 106.786 257.32 96.0775 259.018C88.4121 260.233 80.4136 262.112 73.6049 265.092C66.7962 268.072 61.0815 272.177 58.3822 278.051C58.2591 278.318 58.2054 278.612 58.2259 278.905C58.2465 279.199 58.3405 279.482 58.4995 279.73C58.6585 279.977 58.8774 280.18 59.1357 280.321C59.3941 280.461 59.6838 280.534 59.9779 280.533L212.681 280.096C211.59 282.262 206.088 293.159 199.37 307.03C195.694 314.621 191.985 322.432 189.119 328.803C187.686 331.989 186.462 334.813 185.556 337.086C184.65 339.359 184.057 340.96 183.863 342.242C183.863 342.244 183.863 342.245 183.863 342.246C183.684 343.448 184.09 344.312 184.63 345.336C185.171 346.36 185.957 347.476 186.997 348.662C189.078 351.036 192.173 353.674 196.273 355.944C204.473 360.482 216.719 363.485 232.427 359.557C233.495 359.29 233.897 358.731 234.429 358.112C234.961 357.493 235.501 356.721 236.095 355.778C237.283 353.892 238.669 351.333 240.208 348.25C243.287 342.086 246.967 333.848 250.626 325.096C257.945 307.592 265.152 288.193 267.21 279.057V279.055C269.293 269.835 267.657 260.449 261.581 252.782C255.506 245.114 245.12 239.221 229.978 236.446C215.092 233.719 197.392 230.881 181.453 226.838C165.514 222.796 151.357 217.462 143.714 210.258C143.534 210.088 143.32 209.959 143.086 209.878C142.852 209.797 142.603 209.767 142.357 209.789C141.888 209.831 141.398 209.867 140.911 209.901C122.371 211.17 110.738 204.668 105.154 200.407C104.953 200.254 104.722 200.146 104.476 200.091C104.229 200.037 103.974 200.035 103.728 200.088ZM104.931 204.418C111.503 208.959 123.289 214.614 141.152 213.391C141.408 213.373 141.677 213.35 141.941 213.33C150.568 221.09 164.797 226.226 180.589 230.231C196.748 234.329 214.521 237.174 229.345 239.889C243.903 242.557 253.424 248.126 258.835 254.955C264.247 261.784 265.682 269.931 263.794 278.285C261.893 286.726 254.674 306.341 247.396 323.746C243.757 332.449 240.095 340.64 237.076 346.686C235.566 349.709 234.211 352.201 233.132 353.912C232.593 354.768 232.119 355.43 231.773 355.832C231.433 356.228 231.122 356.277 231.57 356.164C216.681 359.886 205.455 357.026 197.966 352.881C194.221 350.808 191.418 348.398 189.628 346.356C188.734 345.335 188.092 344.402 187.722 343.701C187.353 343.002 187.365 342.473 187.322 342.764C187.393 342.294 187.932 340.576 188.806 338.383C189.681 336.189 190.887 333.399 192.308 330.241C195.15 323.924 198.851 316.13 202.519 308.555C209.856 293.406 217.064 279.125 217.064 279.125C217.198 278.858 217.262 278.561 217.249 278.262C217.236 277.963 217.147 277.673 216.989 277.418C216.832 277.164 216.612 276.954 216.351 276.808C216.089 276.663 215.795 276.587 215.496 276.588L63.1362 277.024C65.6919 273.488 69.8138 270.571 75.0052 268.299C81.3825 265.508 89.1411 263.661 96.6245 262.475C111.591 260.102 125.4 260.34 125.4 260.34C125.782 260.347 126.156 260.229 126.464 260.003C126.773 259.778 126.999 259.457 127.108 259.091C127.218 258.725 127.204 258.333 127.07 257.975C126.936 257.617 126.688 257.313 126.365 257.11C107.308 245.093 102.373 231.559 101.921 220.922C101.548 212.125 103.957 206.491 104.929 204.418L104.931 204.418Z" fill="black"/>
<path fill-rule="evenodd" clip-rule="evenodd" d="M157.863 205.817C166.133 215.082 218.893 224.311 244.113 231.568C269.333 238.825 272.753 252.396 273.223 269.632C273.303 272.379 272.653 276.216 271.503 280.716C271.503 280.716 276.933 257.715 255.403 243.429C235.443 230.184 195.003 233.594 157.863 215.67C156.593 215.056 151.053 220.023 149.273 221.192C147.493 222.36 135.383 214.78 135.383 214.78L135.743 211.809C137.443 211.822 139.203 211.771 141.033 211.646C146.053 211.302 151.613 210.632 157.863 205.817Z" fill="black"/>
<path d="M134.732 276.942C134.301 277.114 133.957 277.451 133.775 277.877C133.684 278.089 133.636 278.316 133.633 278.546C133.63 278.776 133.673 279.004 133.758 279.217C133.844 279.431 133.97 279.625 134.131 279.79C134.292 279.954 134.483 280.086 134.695 280.176C156.448 289.491 168.374 313.791 172.925 336.233C175.201 347.453 175.624 358.173 174.603 366.09C174.093 370.049 173.21 373.306 172.117 375.506C171.023 377.707 169.837 378.69 168.769 378.871C168.312 378.949 167.904 379.205 167.636 379.584C167.367 379.962 167.26 380.432 167.337 380.889C167.376 381.116 167.459 381.332 167.581 381.527C167.703 381.722 167.863 381.89 168.05 382.023C168.238 382.156 168.45 382.251 168.674 382.302C168.898 382.353 169.13 382.359 169.357 382.321C171.961 381.877 173.887 379.805 175.249 377.065C176.612 374.324 177.53 370.753 178.074 366.537C179.161 358.107 178.699 347.098 176.355 335.537C171.666 312.417 159.409 286.951 136.072 276.957C135.86 276.867 135.633 276.819 135.403 276.816C135.173 276.813 134.945 276.856 134.732 276.942Z" fill="black"/>
<path d="M187.316 276.67C187.086 276.683 186.861 276.741 186.654 276.84C186.447 276.94 186.261 277.08 186.108 277.251C185.955 277.422 185.837 277.622 185.761 277.839C185.685 278.056 185.652 278.286 185.665 278.516C185.665 278.516 185.771 280.176 184.622 282.205C183.474 284.235 181.145 286.59 175.503 287.571C172.517 288.09 169.416 289.503 167.835 292.535C166.254 295.568 166.418 299.777 168.861 305.328C173.333 315.514 172.817 324.085 171.72 330.307C171.639 330.764 171.743 331.234 172.009 331.614C172.275 331.994 172.681 332.253 173.138 332.334C173.364 332.374 173.596 332.37 173.821 332.32C174.046 332.271 174.258 332.177 174.446 332.046C174.635 331.914 174.796 331.747 174.919 331.553C175.043 331.359 175.127 331.143 175.167 330.916C176.33 324.325 176.873 314.866 172.066 303.918C169.859 298.903 170.024 295.912 170.941 294.155C171.857 292.397 173.75 291.429 176.105 291.02C182.563 289.897 186.039 286.813 187.671 283.93C189.303 281.046 189.161 278.321 189.161 278.321C189.136 277.857 188.927 277.423 188.581 277.114C188.235 276.804 187.781 276.645 187.318 276.67H187.316Z" fill="black"/>
<path d="M192.828 349.518C192.396 349.347 191.914 349.354 191.488 349.539C191.062 349.723 190.727 350.069 190.556 350.5C190.556 350.5 185.722 362.028 189.253 371.533C189.569 372.384 190.147 372.807 190.708 373.153C191.27 373.498 191.895 373.761 192.621 374.008C194.071 374.502 195.919 374.911 198.109 375.276C202.489 376.004 208.218 376.527 214.298 376.789C226.46 377.315 239.794 376.912 246.726 374.555C250.116 373.403 252.28 370.926 252.527 368.162C252.774 365.399 250.97 362.674 247.876 361.408C245.064 360.258 242.417 359.93 240.089 359.371C237.762 358.812 235.769 358.091 233.779 356.231C233.611 356.074 233.414 355.951 233.198 355.87C232.983 355.79 232.754 355.752 232.524 355.76C232.294 355.768 232.068 355.821 231.859 355.916C231.65 356.011 231.461 356.147 231.304 356.315C230.988 356.654 230.819 357.105 230.834 357.568C230.85 358.032 231.049 358.471 231.388 358.787C233.928 361.162 236.694 362.157 239.271 362.776C241.848 363.395 244.253 363.709 246.55 364.649C248.567 365.473 249.144 366.697 249.04 367.852C248.937 369.007 248.021 370.418 245.601 371.241C239.943 373.165 226.399 373.807 214.451 373.291C208.476 373.033 202.842 372.514 198.685 371.823C196.606 371.477 194.891 371.081 193.751 370.694C193.182 370.5 192.756 370.304 192.542 370.172C192.329 370.041 192.407 369.972 192.532 370.315C189.724 362.756 193.81 351.789 193.81 351.789C193.981 351.358 193.973 350.876 193.789 350.45C193.605 350.024 193.259 349.689 192.828 349.518Z" fill="black"/>
<path d="M175.716 350.369C175.528 350.502 175.368 350.67 175.245 350.864C175.122 351.058 175.038 351.275 174.999 351.501C174.959 351.728 174.965 351.96 175.015 352.184C175.066 352.409 175.16 352.621 175.292 352.809C175.292 352.809 180.135 359.618 189.91 360.879C190.37 360.938 190.835 360.812 191.202 360.529C191.569 360.245 191.809 359.828 191.869 359.367C191.898 359.139 191.882 358.908 191.822 358.686C191.763 358.464 191.659 358.256 191.519 358.074C191.379 357.892 191.204 357.739 191.004 357.624C190.805 357.51 190.585 357.436 190.357 357.406C181.991 356.327 178.154 350.795 178.154 350.795C177.887 350.416 177.48 350.157 177.023 350.078C176.566 349.998 176.096 350.103 175.716 350.369Z" fill="black"/>
<path d="M80.653 311.468C108.353 311.468 130.843 333.956 130.843 361.656C130.843 389.356 108.353 411.845 80.653 411.845C52.953 411.845 30.463 389.356 30.463 361.656C30.463 333.956 52.953 311.468 80.653 311.468ZM79.0229 327.268C59.563 327.268 43.7529 343.072 43.7529 362.539C43.7529 382.006 59.563 397.81 79.0229 397.81C98.493 397.81 114.303 382.006 114.303 362.539C114.303 343.072 98.493 327.268 79.0229 327.268Z" fill="black"/>
<path d="M80.6537 309.717C52.0066 309.717 28.7123 333.009 28.7123 361.656C28.7123 390.304 52.0065 413.594 80.6537 413.594C109.301 413.594 132.593 390.304 132.593 361.656C132.593 333.009 109.301 309.717 80.6537 309.717ZM80.6537 313.217C107.406 313.217 129.093 334.904 129.093 361.656C129.093 388.409 107.406 410.094 80.6537 410.094C53.9009 410.094 32.2123 388.409 32.2123 361.656C32.2123 334.904 53.9009 313.217 80.6537 313.217ZM79.0228 325.518C58.6154 325.518 42.0033 342.125 42.0033 362.539C42.0033 382.954 58.6154 399.559 79.0228 399.559C99.4398 399.559 116.052 382.954 116.052 362.539C116.052 342.125 99.4398 325.518 79.0228 325.518ZM79.0228 329.018C97.5458 329.018 112.552 344.02 112.552 362.539C112.552 381.059 97.5458 396.059 79.0228 396.059C60.5103 396.059 45.5033 381.059 45.5033 362.539C45.5033 344.02 60.5103 329.018 79.0228 329.018Z" fill="black"/>
<path d="M389.083 310.118C417.153 310.118 439.943 332.909 439.943 360.981C439.943 389.053 417.153 411.845 389.083 411.845C361.013 411.845 338.213 389.053 338.213 360.981C338.213 332.909 361.013 310.118 389.083 310.118ZM389.083 327.099C369.463 327.099 353.533 343.028 353.533 362.649C353.533 382.269 369.463 398.198 389.083 398.198C408.703 398.198 424.633 382.269 424.633 362.649C424.633 343.028 408.703 327.099 389.083 327.099Z" fill="black"/>
<path d="M389.083 308.367C360.066 308.367 336.462 331.961 336.462 360.981C336.462 390 360.066 413.594 389.083 413.594C418.101 413.594 441.693 390 441.693 360.981C441.693 331.962 418.101 308.367 389.083 308.367ZM389.083 311.867C416.206 311.867 438.193 333.856 438.193 360.981C438.193 388.106 416.206 410.094 389.083 410.094C361.961 410.094 339.962 388.105 339.962 360.981C339.962 333.856 361.961 311.867 389.083 311.867ZM389.083 325.348C368.516 325.348 351.783 342.081 351.783 362.649C351.783 383.216 368.516 399.948 389.083 399.948C409.651 399.948 426.382 383.216 426.382 362.649C426.382 342.081 409.651 325.348 389.083 325.348ZM389.083 328.848C407.756 328.848 422.882 343.975 422.882 362.649C422.882 381.321 407.756 396.448 389.083 396.448C370.411 396.448 355.283 381.321 355.283 362.649C355.283 343.975 370.411 328.848 389.083 328.848Z" fill="black"/>
</g>
<defs>
<clipPath id="clip0_1_236">
<rect width="441.842" height="412.915" fill="white" transform="translate(0.61084 0.679443)"/>
</clipPath>
</defs>
</svg>
